<?xml version="1.0" standalone="no"?><!DOCTYPE svg PUBLIC "-//W3C//DTD SVG 1.1//EN" "http://www.w3.org/Graphics/SVG/1.1/DTD/svg11.dtd"><svg t="1672824510758" class="icon" viewBox="0 0 1024 1024" version="1.1" xmlns="http://www.w3.org/2000/svg" p-id="3765" xmlns:xlink="http://www.w3.org/1999/xlink" width="200" height="200"><path d="M512.512 632.746667c-68.437333 0-123.818667-53.333333-123.818667-120.32 0-66.986667 55.381333-120.746667 123.818667-120.746667s122.538667 53.76 122.538667 120.746667-54.101333 120.32-122.538667 120.32z" fill="#200E32" p-id="3766"></path><path d="M905.813333 613.12c-8.277333-12.8-20.053333-25.6-35.328-33.706667-12.202667-5.973333-20.053333-15.786667-27.008-27.306666-22.272-36.693333-9.173333-84.906667 27.904-106.666667a86.485333 86.485333 0 0 0 32.256-120.746667l-29.226666-50.346666a90.112 90.112 0 0 0-122.538667-32.426667c-38.357333 20.48-87.637333 6.826667-109.866667-29.44-6.954667-11.946667-10.88-24.746667-10.026666-37.546667 1.28-16.64-3.925333-32.426667-11.776-45.226666A91.818667 91.818667 0 0 0 542.592 85.333333h-61.44c-31.872 0.853333-61.098667 17.92-77.226667 44.373334-8.277333 12.8-13.056 28.586667-12.202666 45.226666 0.853333 12.8-3.029333 25.6-10.026667 37.546667-22.229333 36.266667-71.509333 49.92-109.44 29.44a90.624 90.624 0 0 0-122.965333 32.426667l-29.226667 50.346666c-24.832 42.24-10.88 96.426667 32.298667 120.746667 37.034667 21.76 50.133333 69.973333 28.330666 106.666667-7.424 11.52-15.274667 21.333333-27.477333 27.306666-14.805333 8.106667-27.904 20.906667-34.901333 33.706667-16.128 26.453333-15.232 59.733333 0.853333 87.466667l30.122667 51.2a91.050667 91.050667 0 0 0 77.653333 44.373333c14.805333 0 32.213333-4.266667 46.165333-12.8 10.922667-7.253333 24.021333-9.813333 38.4-9.813333 43.136 0 79.36 35.413333 80.213334 77.653333 0 49.066667 40.106667 87.466667 90.709333 87.466667h59.306667c50.133333 0 90.24-38.4 90.24-87.466667 1.28-42.24 37.504-77.653333 80.64-77.653333 13.994667 0 27.050667 2.56 38.4 9.813333 13.952 8.533333 30.976 12.8 46.208 12.8 30.976 0 61.056-17.066667 77.226666-44.373333l30.506667-51.2c15.658667-28.586667 16.981333-61.013333 0.853333-87.466667z" fill="#200E32" opacity=".4" p-id="3767"></path></svg>